<svg width="20" height="20" viewBox="0 0 20 20" fill="none" xmlns="http://www.w3.org/2000/svg">
<path d="M19.6486 7.4397L17.1462 5.40016V2.13837C17.1462 1.77106 16.8473 1.47219 16.48 1.47219H14.9054C14.5381 1.47219 14.2392 1.77106 14.2392 2.13837V3.03087L10.8954 0.305655C10.6535 0.108587 10.3347 0 9.99776 0C9.66213 0 9.34485 0.107921 9.1043 0.303959L0.351139 7.43963C-0.046569 7.7637 -0.0227077 8.04598 0.0268923 8.18539C0.0763711 8.3245 0.235709 8.55791 0.746607 8.55791H1.94518V17.9418C1.94518 18.6114 2.48854 19.1562 3.15642 19.1562H6.94152C7.60376 19.1562 8.12247 18.6227 8.12247 17.9418V14.0936C8.12247 13.7638 8.42558 13.4635 8.75837 13.4635H11.302C11.6192 13.4635 11.8773 13.7462 11.8773 14.0936V17.9418C11.8773 18.6001 12.4458 19.1562 13.1188 19.1562H16.8433C17.5112 19.1562 18.0546 18.6114 18.0546 17.9418V8.55791H19.2532C19.7641 8.55791 19.9233 8.3245 19.9729 8.18539C20.0225 8.04598 20.0463 7.7637 19.6486 7.4397Z" fill="white"/>
</svg>
